<?xml version="1.0" encoding="utf-8"?>
<!-- Generator: Adobe Illustrator 21.0.0, SVG Export Plug-In . SVG Version: 6.00 Build 0)  -->
<svg version="1.1" id="icon" xmlns="http://www.w3.org/2000/svg" xmlns:xlink="http://www.w3.org/1999/xlink" x="0px" y="0px"
	 viewBox="0 0 297 280" style="enable-background:new 0 0 297 280;" xml:space="preserve">
<style type="text/css">
	.st0{fill:none;stroke:#00E5B9;stroke-width:15;}
	.st1{fill:#022620;}
	.st2{fill:#00E5B9;}
</style>
<g>
	<line class="st0" x1="80.5" y1="27.5" x2="80.5" y2="0.5"/>
	<line class="st0" x1="162.5" y1="27.5" x2="162.5" y2="0.5"/>
	<line class="st0" x1="189.5" y1="27.5" x2="189.5" y2="0.5"/>
	<line class="st0" x1="215.5" y1="27.5" x2="215.5" y2="0.5"/>
	<line class="st0" x1="243.5" y1="27.5" x2="243.5" y2="0.5"/>
	<line class="st0" x1="134.5" y1="27.5" x2="134.5" y2="0.5"/>
	<line class="st0" x1="106.5" y1="27.5" x2="106.5" y2="0.5"/>
	<line class="st0" x1="53.5" y1="27.5" x2="53.5" y2="0.5"/>
</g>
<g>
	<line class="st0" x1="270" y1="72" x2="297" y2="72"/>
	<line class="st0" x1="270" y1="154" x2="297" y2="154"/>
	<line class="st0" x1="270" y1="181" x2="297" y2="181"/>
	<line class="st0" x1="270" y1="207" x2="297" y2="207"/>
	<line class="st0" x1="270" y1="235" x2="297" y2="235"/>
	<line class="st0" x1="270" y1="126" x2="297" y2="126"/>
	<line class="st0" x1="270" y1="98" x2="297" y2="98"/>
	<line class="st0" x1="270" y1="45" x2="297" y2="45"/>
</g>
<g>
	<line class="st0" x1="0" y1="72" x2="27" y2="72"/>
	<line class="st0" x1="0" y1="154" x2="27" y2="154"/>
	<line class="st0" x1="0" y1="181" x2="27" y2="181"/>
	<line class="st0" x1="0" y1="207" x2="27" y2="207"/>
	<line class="st0" x1="0" y1="235" x2="27" y2="235"/>
	<line class="st0" x1="0" y1="126" x2="27" y2="126"/>
	<line class="st0" x1="0" y1="98" x2="27" y2="98"/>
	<line class="st0" x1="0" y1="45" x2="27" y2="45"/>
</g>
<g>
	<line class="st0" x1="215.5" y1="252.5" x2="215.5" y2="279.5"/>
	<line class="st0" x1="133.5" y1="252.5" x2="133.5" y2="279.5"/>
	<line class="st0" x1="106.5" y1="252.5" x2="106.5" y2="279.5"/>
	<line class="st0" x1="80.5" y1="252.5" x2="80.5" y2="279.5"/>
	<line class="st0" x1="52.5" y1="252.5" x2="52.5" y2="279.5"/>
	<line class="st0" x1="161.5" y1="252.5" x2="161.5" y2="279.5"/>
	<line class="st0" x1="189.5" y1="252.5" x2="189.5" y2="279.5"/>
	<line class="st0" x1="242.5" y1="252.5" x2="242.5" y2="279.5"/>
</g>
<path class="st1" d="M27,27.5h243v225H27V27.5z"/>
<path class="st2" d="M179.5,145v-9h36l0.5-63.5h-63v100h36v8h-45v-36h-36v-9h36v-63h-27v36h-9v-36H81v135h135l-0.5-62.5H179.5z
	 M180,99.5h9v9h-9V99.5z M117,180.5h-9v-9h9V180.5z"/>
</svg>
